PathFileType	4	(X/Y/Z)	s11c0401.trc
DataRate	CameraRate	NumFrames	NumMarkers	Units	OrigDataRate	OrigDataStartFrame	OrigNumFrames
200	200	4	48	mm	200	1750	2000
Frame#	Time	racr			lacr			c7			jug			rlel			rdr			llel			ldr			s2			lic			ric			lasi			rasi			rpsi			lpsi			rgt			lgt			rth1			rth2			rth3			rth4			rlfc			rmfc			rsh1			rsh2			rsh3			rsh4			rlmal			rcal			rtoe			rmt5			lth1			lth2			lth4			lth3			llfc			lmfc			llmal			lcal			lmt5			lsh1			lsh2			lsh3			lsh4			ltoe			SBIKE			LBIKE			RBIKE			
		X1	Y1	Z1	X2	Y2	Z2	X3	Y3	Z3	X4	Y4	Z4	X5	Y5	Z5	X6	Y6	Z6	X7	Y7	Z7	X8	Y8	Z8	X9	Y9	Z9	X10	Y10	Z10	X11	Y11	Z11	X12	Y12	Z12	X13	Y13	Z13	X14	Y14	Z14	X15	Y15	Z15	X16	Y16	Z16	X17	Y17	Z17	X18	Y18	Z18	X19	Y19	Z19	X20	Y20	Z20	X21	Y21	Z21	X22	Y22	Z22	X23	Y23	Z23	X24	Y24	Z24	X25	Y25	Z25	X26	Y26	Z26	X27	Y27	Z27	X28	Y28	Z28	X29	Y29	Z29	X30	Y30	Z30	X31	Y31	Z31	X32	Y32	Z32	X33	Y33	Z33	X34	Y34	Z34	X35	Y35	Z35	X36	Y36	Z36	X37	Y37	Z37	X38	Y38	Z38	X39	Y39	Z39	X40	Y40	Z40	X41	Y41	Z41	X42	Y42	Z42	X43	Y43	Z43	X44	Y44	Z44	X45	Y45	Z45	X46	Y46	Z46	X47	Y47	Z47	X48	Y48	Z48	
1750	8.7500	459.986799	1432.081960	-98.722294	448.262700	1470.009159	-422.298237	371.638568	1547.436728	-256.631006	419.272871	1376.600694	-268.792261	576.046776	1183.526976	-27.116658	762.037800	948.694354	-95.816588	538.858120	1191.363755	-515.108028	752.514179	947.836005	-465.327172	-131.451189	1199.477349	-257.384551	82.608264	1221.687007	-465.753973	94.028850	1219.898192	-67.654943	121.899189	1148.368491	-435.461394	122.791162	1154.640973	-105.723978	-91.250716	1274.536816	-206.638289	-94.744607	1264.056054	-304.642671	49.101860	1083.640593	-39.598387	1.538591	1075.625447	-469.051948	170.670562	1005.640007	-33.575328	257.382213	986.863037	-42.690827	320.652617	926.990874	-53.495361	273.606694	1018.264534	-54.467295	412.218886	861.753426	-70.262365	417.499023	846.568629	-201.702897	311.057010	742.106371	-63.455221	265.196689	669.656199	-85.378900	189.823905	626.122402	-87.950525	284.290931	656.217431	-117.405974	84.847013	550.648673	-103.636813	23.600562	577.210573	-152.188629	220.096035	368.131064	-147.641136	150.365038	393.352276	-77.785950	112.026676	967.640722	-486.791554	186.997393	926.260730	-483.754496	213.580806	951.887293	-479.100561	232.497473	849.038110	-475.253608	330.354088	749.754467	-451.157693	348.425871	746.889816	-325.431415	255.584709	328.886334	-421.338301	199.240793	289.966080	-385.933872	398.938144	234.155479	-456.446552	302.227476	625.755248	-468.803696	316.334123	541.929127	-454.536643	286.760700	458.975108	-447.785411	348.483499	541.959224	-433.502896	496.035813	255.051906	-389.727179	-182.496684	947.597548	-261.852802	-17.853281	80.806734	-461.017507	-17.868881	80.883075	-62.152272	
1751	8.7550	459.947351	1432.146030	-98.320339	448.734947	1470.302901	-421.846179	371.708800	1547.618634	-256.252181	419.497113	1376.898998	-268.395430	576.028966	1183.502597	-26.801735	761.977091	948.773093	-95.866263	539.167207	1191.497655	-515.009609	752.723994	948.051120	-465.658718	-131.307241	1199.514186	-257.663555	82.825504	1221.410686	-465.775194	93.902632	1220.305970	-67.671278	122.315879	1148.317623	-435.621030	122.471283	1154.847818	-105.707906	-91.189451	1274.593994	-207.031338	-94.556691	1264.054881	-305.036269	49.424096	1085.010611	-39.388603	1.215252	1074.881592	-468.871147	171.795482	1008.478548	-33.479287	258.669832	990.576900	-42.810759	322.623520	931.441981	-53.394792	274.481877	1022.093427	-54.813409	414.917971	867.094837	-70.250903	419.965574	851.750744	-201.926911	313.998365	747.097414	-63.468210	268.284442	674.488122	-85.307281	192.824601	631.130961	-87.997325	287.646785	661.422382	-117.339698	87.845065	555.350997	-103.757439	26.508907	581.748758	-152.517007	223.368482	373.074522	-147.707034	153.542722	398.241938	-77.824647	110.366022	965.580848	-486.655667	184.772346	923.206406	-483.467085	211.686304	948.402518	-478.804740	229.222617	845.393176	-474.518277	325.934510	745.187742	-450.348002	344.237463	742.570900	-324.467432	252.168685	324.043888	-421.001807	196.070047	285.146445	-385.830658	395.650943	229.321782	-456.425989	297.872939	621.224239	-468.329909	312.146111	537.484242	-454.112890	282.738638	454.380551	-447.416531	344.308384	537.491281	-433.058402	492.717301	250.307098	-389.709201	-182.535946	947.350578	-262.486023	-17.846752	80.816176	-461.020441	-17.869358	80.884225	-62.142287	
1752	8.7600	459.911440	1432.236536	-97.865266	449.238973	1470.574193	-421.425151	371.798796	1547.810662	-255.876295	419.686532	1377.166505	-268.042407	576.057824	1183.497823	-26.466513	761.917927	949.051561	-96.113481	539.487876	1191.674350	-514.891455	752.902957	948.183900	-465.854129	-131.164992	1199.517923	-257.913871	83.014483	1221.015738	-465.721469	93.780959	1220.719624	-67.716988	122.755632	1148.247158	-435.765187	121.989003	1155.466844	-106.010713	-91.200706	1274.760314	-207.387554	-94.391352	1264.044769	-305.335669	49.724764	1086.363981	-39.158038	0.835073	1074.124960	-468.746753	172.837269	1011.293493	-33.427534	260.006385	994.315842	-43.000132	324.540217	935.896301	-53.350984	275.342779	1025.970780	-55.092146	417.602236	872.404212	-70.152555	422.500834	856.702458	-201.776386	316.912653	752.112885	-63.493814	271.674851	679.708699	-85.596654	195.907105	635.923863	-87.982082	290.693782	666.220161	-117.224353	90.972576	560.052616	-103.768902	29.607376	586.294670	-152.598009	226.755068	378.108148	-147.767522	157.047516	403.018486	-77.876093	108.679085	963.558351	-486.530147	182.444061	920.171367	-483.163301	209.726680	945.155106	-478.543766	225.849295	841.876679	-473.946889	321.482232	740.758142	-449.577939	339.620616	737.965042	-323.643366	248.548425	319.452288	-420.735351	192.683454	280.429267	-385.665183	392.187767	224.532860	-456.374437	293.518737	616.817286	-467.830284	307.892224	533.017735	-453.659610	278.619676	449.938593	-447.069746	340.081913	533.150164	-432.615394	489.386552	245.405070	-389.617358	-182.602788	947.123599	-263.092994	-17.898519	80.882424	-460.941727	-17.887105	80.864899	-62.161387	
1753	8.7650	459.874482	1432.359548	-97.298740	449.743412	1470.899869	-421.054336	371.868063	1547.961426	-255.433511	419.910622	1377.419017	-267.649789	576.088563	1183.514596	-26.147744	761.888848	949.117061	-96.195582	539.805677	1191.836391	-514.741027	753.050099	948.317730	-466.080102	-131.080911	1199.548359	-258.072142	83.332811	1220.659224	-465.910010	93.641549	1221.116701	-67.755837	123.094998	1148.165369	-435.867384	121.438369	1156.261226	-106.669151	-91.190743	1274.924664	-207.680628	-94.266606	1264.018976	-305.583161	50.060354	1087.786028	-38.839066	0.423999	1073.662170	-468.786423	173.903735	1014.125746	-33.332034	261.187424	998.077263	-43.048923	326.414230	940.399105	-53.284299	276.122338	1029.819602	-55.412525	420.240909	877.768338	-70.104561	424.880866	861.846199	-201.894046	319.856020	757.099626	-63.514920	274.690356	684.638189	-85.549764	199.037696	640.739828	-88.053595	293.690850	671.134718	-117.307201	94.198120	564.734532	-103.811089	32.655244	590.833156	-152.588581	230.377300	383.033895	-147.794053	160.525815	407.946898	-77.908330	106.895955	961.634068	-486.402303	180.256495	917.245936	-482.947501	207.717914	941.829525	-478.312039	222.404002	838.154303	-472.869020	316.993287	736.448884	-448.847401	334.999763	733.430026	-322.824763	244.901925	314.819334	-420.300022	189.206672	275.982845	-385.608980	388.615329	219.783653	-456.277133	289.052203	612.502910	-467.419181	303.570421	528.751376	-453.270278	274.362479	445.642782	-446.723297	335.763565	528.837044	-432.279155	485.774973	240.657635	-389.595640	-182.444219	947.019058	-263.343969	-17.847632	80.800582	-460.997043	-17.870508	80.855477	-62.146652	
